<svg width="20" height="20" viewBox="0 0 20 20" fill="none" xmlns="http://www.w3.org/2000/svg">
<path fill-rule="evenodd" clip-rule="evenodd" d="M14.459 8.87436L15.8333 7.5C16.0678 7.2655 16.1851 7.14825 16.2695 7.03605C16.8056 6.32383 16.8056 5.34284 16.2695 4.63063C16.1851 4.51842 16.0678 4.40117 15.8333 4.16667C15.5988 3.93217 15.4816 3.81492 15.3694 3.73047C14.6571 3.19442 13.6762 3.19442 12.9639 3.73047C12.8517 3.81492 12.7345 3.93217 12.5 4.16667L11.1064 5.56029C11.9033 6.94053 13.06 8.08831 14.459 8.87436ZM9.65177 7.01488L4.1897 12.477C3.76464 12.902 3.55211 13.1145 3.41237 13.3756C3.27264 13.6367 3.21369 13.9315 3.0958 14.5209L2.64707 16.7646C2.58055 17.0972 2.54729 17.2635 2.6419 17.3581C2.73651 17.4527 2.90281 17.4194 3.23542 17.3529L5.47907 16.9042L5.47908 16.9042C6.06852 16.7863 6.36325 16.7273 6.62434 16.5876C6.88544 16.4479 7.09797 16.2354 7.52303 15.8103L13.0006 10.3327C11.6528 9.48197 10.5106 8.34754 9.65177 7.01488Z" fill="#222222"/>
</svg>
